<svg xmlns="http://www.w3.org/2000/svg" width="621" height="621" viewBox="0 0 621 621" version="1.1">
	<path d="M 235.500 87.058 C 232.200 87.506, 225.675 88.400, 221 89.045 C 200.651 91.852, 175.231 99.882, 155.629 109.696 C 96.191 139.452, 54.282 191.406, 37.454 256.193 C 32.343 275.869, 29.804 310.439, 31.923 331.500 C 39.582 407.622, 84.122 473.213, 152 508.328 C 184.729 525.260, 217.080 533.161, 254 533.238 C 272.102 533.276, 280.600 532.454, 299.680 528.821 L 310.859 526.693 321.378 528.836 C 370.838 538.915, 425.177 531.437, 468.500 508.589 C 495.532 494.333, 516.048 478.142, 534.843 456.229 C 566.218 419.650, 584.896 375.730, 588.951 329 C 590.726 308.543, 587.927 274.569, 582.937 256 C 573.357 220.347, 560.117 194.389, 537.254 166.437 C 510.251 133.422, 471.026 107.730, 429.054 95.565 C 391.386 84.648, 359.084 83.336, 320.236 91.148 L 309.971 93.211 298.736 91.088 C 274.365 86.481, 250.814 84.980, 235.500 87.058 M 347.922 199.552 C 324.411 203.809, 303.294 214.694, 287.428 230.734 C 276.328 241.955, 269.537 252.084, 262.445 268 C 256.884 280.477, 248.812 292.251, 241.841 298.053 C 228.154 309.443, 225.247 310, 179.455 310 L 142.698 310 143.319 319.250 C 144.859 342.195, 154.479 364.737, 170.741 383.500 C 185.068 400.031, 204.533 411.935, 227.500 418.212 C 236.707 420.728, 259.711 421.704, 271.123 420.062 C 286.755 417.814, 306.507 409.843, 319.390 400.585 C 335.392 389.085, 346.370 375.384, 356.717 354 C 360.842 345.475, 366.206 335.702, 368.636 332.283 C 374.052 324.662, 382.375 317.708, 391 313.598 L 397.500 310.500 437.500 310 L 477.500 309.500 477.807 305.269 C 477.975 302.942, 477.401 296.913, 476.531 291.870 C 470.394 256.310, 450.213 228.313, 418 210.672 C 398.785 200.148, 369.920 195.568, 347.922 199.552" stroke="none" fill="black" fill-rule="evenodd"/>
</svg>